<?xml version="1.0" standalone="no"?><!DOCTYPE svg PUBLIC "-//W3C//DTD SVG 1.1//EN" "http://www.w3.org/Graphics/SVG/1.1/DTD/svg11.dtd"><svg t="1722678914379" class="icon" viewBox="0 0 1024 1024" version="1.1" xmlns="http://www.w3.org/2000/svg" p-id="9829" xmlns:xlink="http://www.w3.org/1999/xlink" width="200" height="200"><path d="M713.353846 670.769231l-171.323077-170.830769v-288a30.148923 30.148923 0 0 0-30.030769-30.03077 30.148923 30.148923 0 0 0-30.030769 30.03077V512.492308c0 3.938462 0.738462 7.876923 2.215384 11.56923 1.476923 3.692308 3.692308 6.892308 6.4 9.846154L670.523077 713.6c5.907692 5.907692 13.538462 8.861538 21.169231 8.861538 7.630769 0 15.261538-2.953846 21.16923-8.861538 12.061538-12.061538 12.061538-31.015385 0.492308-42.830769z" fill="#2E323F" p-id="9830"></path><path d="M512 1022.030769C230.646154 1022.030769 1.969231 793.107692 1.969231 512 1.969231 230.892308 230.646154 1.969231 512 1.969231c281.353846 0 510.030769 228.923077 510.030769 510.030769 0 281.107692-228.676923 510.030769-510.030769 510.030769z m0-960.246154C263.876923 61.784615 61.784615 263.630769 61.784615 512S263.630769 962.215385 512 962.215385 962.215385 760.369231 962.215385 512 760.123077 61.784615 512 61.784615z" fill="#2E323F" p-id="9831"></path></svg>