<svg width="153" height="42" xmlns="http://www.w3.org/2000/svg" xmlns:xlink="http://www.w3.org/1999/xlink" xml:space="preserve" overflow="hidden"><defs><clipPath id="clip0"><rect x="589" y="30" width="153" height="42"/></clipPath></defs><g clip-path="url(#clip0)" transform="translate(-589 -30)"><path d="M86.3431 19.5459C85.2553 19.3165 85.8989 18.9683 85.729 18.0654 85.5807 17.2657 84.8554 16.4811 84.8776 15.8891 84.937 14.2877 86.9873 14.4086 88.2307 14.8973 88.5318 15.0831 88.785 15.3365 88.9709 15.6375 89.5392 16.4594 90.2143 17.6583 89.3325 18.5985 88.5582 19.3793 87.46 19.7472 86.3716 19.5903" fill="#003F88" fill-rule="evenodd" transform="matrix(1.00364 0 0 1 626.108 36.3104)"/><path d="M78.6602 22.5368 78.5569 22.4924 78.5569 22.1447C79.6944 21.4946 80.7942 20.7805 81.8511 20.0056 82.7577 19.4025 83.4209 18.4976 83.7236 17.4517 81.6057 18.1475 79.6004 19.6729 77.4096 19.8574 76.564 19.5696 75.7504 19.195 74.9818 18.7395L74.9818 18.6212C73.8195 17.881 73.7162 16.8892 74.9818 16.4671 77.203 16.9558 80.5607 15.3792 82.643 14.5868 83.4199 14.3283 84.1539 13.9541 84.8193 13.4767 85.3079 10.5674 84.9897 7.64364 85.1597 4.86038 85.8999 2.83957 87.1289 4.20899 88.3722 5.22198 88.4611 5.3847 88.7421 5.56963 88.9921 5.96222L89.1181 5.96222C89.6435 6.80629 89.7897 7.19113 88.9699 7.97683 88.4053 9.3869 88.1532 10.9024 88.2297 12.4193 89.7101 12.2044 90.6575 10.8794 92.4195 10.85 92.8927 11.5689 92.7129 12.5333 92.0125 13.0335 90.7319 13.6477 89.3403 14.1958 87.8892 14.8544 87.5819 16.4654 86.9103 17.9848 85.9263 19.2969 85.6065 19.6603 85.2573 19.9971 84.8828 20.3037 84.0114 20.914 83.0666 21.4115 82.0701 21.7841 80.9729 22.1709 79.8318 22.4188 78.6732 22.5223" fill="#003F88" fill-rule="evenodd" transform="matrix(1.00364 0 0 1 621.412 31.6535)"/><path d="M59.055 24.2192C58.0167 23.5924 57.1375 22.7334 56.4866 21.7098 56.5827 21.4282 56.6793 21.1472 56.7904 20.8833 59.306 19.1306 61.6957 17.203 63.9407 15.1148 64.6215 14.0713 65.5028 12.9829 66.2353 11.9539 66.273 11.9292 66.3164 11.9139 66.3613 11.9095 66.3582 11.8725 66.3582 11.8353 66.3613 11.7984 66.9905 11.3097 67.257 11.1785 67.7901 11.9833 67.8345 12.6642 66.6206 13.3822 66.243 14.0191 65.7693 15.2258 65.229 16.4542 64.6143 17.7203 64.2351 18.1795 63.903 18.6755 63.6225 19.2008 62.8233 19.9623 62.1735 20.8661 61.7055 21.8658 60.9652 22.3172 60.5954 23.6939 59.6552 24.1753 59.4569 24.1858 59.259 24.208 59.0632 24.242" fill="#003F88" fill-rule="evenodd" transform="matrix(1.00364 0 0 1 613.771 34.9379)"/><path d="M69.2913 15.6427C67.7664 15.576 67.3371 14.6064 66.508 13.718 66.508 13.3181 66.7229 13.0815 66.7596 12.8 66.9791 12.7704 67.1888 12.6921 67.3738 12.5707 68.0102 12.4818 68.2401 12.519 68.9281 12.4746 69.8089 12.2747 72.0518 10.7275 72.807 11.3939 72.9181 13.2443 70.9045 15.0951 69.2907 15.6427" fill="#003F88" fill-rule="evenodd" transform="matrix(1.00364 0 0 1 618.126 34.8614)"/><path d="M60.5122 13.689C59.9347 13.1781 59.8164 10.8241 59.772 10.0839 60.2012 8.77389 61.5283 8.72172 62.6291 9.57302 63.5099 10.7275 64.1096 11.209 63.1844 12.534 62.4664 13.2323 61.5133 13.6363 60.5122 13.6663" fill="#003F88" fill-rule="evenodd" transform="matrix(1.00364 0 0 1 615.199 33.8985)"/><path d="M68.8584 13.5454C68.7034 12.8052 69.6849 11.3242 69.406 10.9326 69.0361 10.9843 68.6657 11.1253 68.2736 11.1475 67.3557 10.7033 66.3489 9.58542 66.7193 8.72688 67.3908 7.98664 67.1325 8.15866 68.1998 8.09047 69.2066 7.63899 70.2144 7.20198 71.2346 6.76548 72.9444 6.44727 73.7291 7.38536 73.8329 9.06007 73.462 10.1014 72.8716 11.0507 72.1009 11.8433 71.1979 12.3392 70.3761 12.8868 69.5547 13.4276 69.3218 13.4436 69.0908 13.4832 68.8661 13.5459" fill="#003F88" fill-rule="evenodd" transform="matrix(1.00364 0 0 1 618.183 32.9026)"/><path d="M61.7964 9.63243C61.4348 9.31422 61.5815 9.14375 61.7964 8.81832 61.752 8.11527 61.3315 7.54498 61.2855 6.87138 61.5149 5.628 61.2855 5.17652 62.3068 4.57678 63.1064 4.93218 65.8897 6.35326 65.2677 7.91536 64.3663 8.86925 63.1586 9.47684 61.8553 9.63243" fill="#003F88" fill-rule="evenodd" transform="matrix(1.00364 0 0 1 615.857 31.9816)"/><path d="M37.1071 27.8006C35.4489 27.1642 34.0077 23.885 36.0042 23.0781 36.0642 22.7809 36.2661 22.5319 36.5445 22.4118 36.5412 22.3698 36.5412 22.3277 36.5445 22.2857 38.1511 20.7314 39.2018 18.5845 40.5567 16.8453 40.9044 16.1939 41.0898 15.5647 41.83 15.3648 42.2077 15.6907 42.0744 16.4382 41.9706 17.008 42.1333 17.1562 42.7108 17.0452 43.0512 16.9413 44.1691 15.9717 45.6273 15.1277 46.7524 14.1136 46.8118 13.6177 46.8635 13.1218 46.9451 12.6332 46.1604 12.8181 43.6065 13.4178 44.2212 11.9745 45.1764 11.5969 46.6341 10.7756 47.1822 9.7533 47.4265 8.70209 47.2855 7.53206 47.8186 6.79234 48.892 6.23703 50.1649 7.59199 50.3798 8.75529 50.809 9.49554 52.1562 8.57036 50.4831 10.9316 50.1277 11.1899 50.1426 11.6718 50.2093 12.2416L50.5791 12.2416C51.5555 11.5184 52.5684 10.8459 53.614 10.227 53.7989 8.81532 54.2246 7.44585 54.8723 6.17814 55.9158 5.4379 57.3296 6.23755 58.3442 7.05166 59.0844 6.97443 59.7802 6.66031 60.3278 6.15593 60.5856 6.07318 60.8583 6.04538 61.1274 6.07431 61.3439 6.47692 61.456 6.92727 61.4534 7.38433 60.9575 8.92421 56.546 9.42735 57.3968 11.2188 58.137 11.1671 58.4258 10.3303 58.7146 9.73832 59.5731 9.27961 61.4384 9.8344 62.3341 10.4786 63.3409 11.6997 62.5635 12.1145 61.4534 12.8842 61.3351 13.0469 61.224 13.2174 61.1274 13.3801 61.0536 15.8374 61.0536 15.8374 61.1274 19.1688 60.8294 19.9467 60.3702 20.6529 59.7802 21.2412L59.7802 21.3446 59.5953 21.3446C59.166 22.0848 58.1148 22.825 57.5079 22.0848 57.5079 19.347 57.6484 16.511 57.5523 13.9421 57.5058 13.9491 57.4603 13.9642 57.419 13.9866 57.2191 15.3188 55.8869 17.821 54.7468 18.6424 53.7669 18.7202 52.8567 18.1317 52.5256 17.2063 52.6366 16.9326 52.8355 16.8731 53.0587 16.681 53.6507 15.4671 53.4719 13.2313 53.4719 12.0396 52.6134 12.1657 51.1773 14.0976 50.511 14.8157 50.0817 15.1633 49.6447 15.5042 49.2232 15.8519 48.9194 16.8659 48.6828 17.8665 48.4163 18.9513 48.1869 19.4322 47.9576 19.9431 47.7205 20.4318L47.6022 20.4318C47.2023 21.1033 45.9073 22.8746 45.1371 21.764L45.1371 21.3275C45.7955 20.3471 46.1859 19.2114 46.2694 18.0334 45.226 18.381 44.5301 19.3361 43.48 19.4028 42.924 19.3022 42.3838 19.1285 41.8734 18.8862 41.8703 18.8468 41.8703 18.8073 41.8734 18.7679 41.6152 18.6052 41.3569 18.3831 41.2019 18.442 41.0092 19.0267 40.8243 19.6409 40.6466 20.2499 39.582 22.491 38.7176 24.8219 38.0638 27.2153 37.8256 27.509 37.489 27.7063 37.1164 27.7706" fill="#003F88" fill-rule="evenodd" transform="matrix(1.00364 0 0 1 604.449 32.5482)"/><path d="M38.056 13.7846C37.7301 13.3109 38.1299 12.6967 38.1449 12.1486 37.634 10.6015 37.2269 9.44698 38.2115 8.1442L38.6852 8.09977C39.572 8.81207 40.3609 9.63831 41.0314 10.5571 41.7717 12.4074 39.3955 13.2365 38.0705 13.7768" fill="#003F88" fill-rule="evenodd" transform="matrix(1.00364 0 0 1 605.569 33.507)"/><path d="M39.1987 9.62106C38.8066 9.48779 38.8138 9.39894 38.7399 9.26566 38.9249 8.88805 39.1015 8.66593 39.0287 8.28109 38.0813 6.80061 38.133 4.57988 39.7689 3.88407 40.2499 3.94347 40.2576 4.34898 40.5092 5.00192 41.5749 6.03815 43.5569 7.31872 41.6787 8.70312 40.8868 9.05077 40.0257 9.323 39.2359 9.59885" fill="#003F88" fill-rule="evenodd" transform="matrix(1.00364 0 0 1 605.915 31.6819)"/><path d="M94.4801 13.0764C92.9996 12.6177 93.2734 10.1836 93.525 9.19748 94.6056 8.50889 96.0267 9.93772 96.1078 11.2121 95.8263 12.611 95.8413 12.8186 94.4791 13.0774" fill="#003F88" fill-rule="evenodd" transform="matrix(1.00364 0 0 1 629.779 33.9047)"/><path d="M102.926 27.6363 102.8 27.5625C100.97 27.7085 99.1292 27.4818 97.3889 26.8961 97.3223 26.782 97.2913 26.6504 97.3 26.5185 98.2996 25.9337 99.7129 26.0965 100.483 25.038 100.624 24.3065 100.669 23.5598 100.616 22.8168 98.7361 22.9278 97.7293 24.2972 96.2416 24.8004 94.9683 24.8743 92.6959 23.7197 92.326 22.7057 92.326 21.0697 92.6665 21.8027 94.4207 21.6989 96.5082 21.3291 98.5956 20.1224 100.616 19.2416 100.811 19.0587 101.039 18.9154 101.288 18.8196 101.732 17.4574 102.028 17.213 103.464 16.9393 104.02 16.6577 104.02 16.6577 105.641 15.6809 105.677 15.5178 105.724 15.3571 105.781 15.2 103.324 15.496 101.339 17.4873 99.3756 18.7974 98.5853 19.0287 97.7371 18.9571 96.9968 18.5964 96.5676 18.6558 94.1247 19.0923 95.3092 18.1155 96.0494 17.834 96.5898 17.3086 97.3595 16.9682 99.2026 15.732 101.337 14.6659 103.326 13.5263 103.319 13.324 103.251 13.1283 103.134 12.9638 103.136 12.6353 103.204 12.3106 103.334 12.0086 102.963 12.1419 102.86 12.1119 102.786 12.3935 101.609 12.91 101.106 13.985 100.121 12.8522 99.9397 13.854 99.1008 14.6043 98.0852 14.6731 97.034 14.1328 97.0046 12.3707 96.8196 11.5566 96.7458 11.4533 96.5975 10.772 96.3088 9.98007 95.8278 9.01048 94.9466 7.92207 95.5339 7.01911 96.2742 6.5604 96.5851 6.38993 97.2215 7.40396 97.8915 7.88777 98.4918 8.46137 99.0052 9.10863L99.1235 9.10863C99.4567 10.0044 100.278 11.1811 100.189 12.3212 100.745 11.9952 101.529 11.3588 101.122 10.6557 100.211 10.1671 100.73 9.31577 101.366 9.00273 101.712 9.02902 102.06 9.01652 102.403 8.96554 102.414 8.83387 102.362 8.70462 102.262 8.61789 101.522 8.35134 101.648 8.17364 101.849 7.55221 101.106 7.32719 100.685 6.54201 100.91 5.79847 100.926 5.74485 100.945 5.69221 100.968 5.64091 103.544 4.99675 103.544 4.99675 104.743 4.61191 105.547 3.61597 106.413 0.911741 107.967 1.38543 108.522 2.09203 108.787 2.98445 108.707 3.87994 108.465 4.25253 108.281 4.65929 108.159 5.08664L108.624 5.08664C109.698 4.55354 110.194 3.91713 110.845 5.5159 111.889 6.07844 112.259 5.92916 111.867 7.44063 111.126 8.95831 110.297 10.5793 109.461 12.1042 109.45 12.1726 109.45 12.2424 109.461 12.3108 109.654 12.3453 109.846 12.3897 110.039 12.4441 110.146 13.2263 110.183 14.0165 110.15 14.8053 109.506 15.7605 108.669 15.7605 107.662 15.8932 106.352 16.5446 105.175 17.0849 103.961 17.8179 103.933 18.0897 103.961 18.3643 104.043 18.6248L105.948 18.6248C106.651 19.0835 106.592 20.3641 106.155 21.1121 105.53 21.1547 104.921 21.3308 104.371 21.6287 104.304 21.9768 104.238 22.3317 104.178 22.6943 104.223 24.0565 104.918 27.3502 102.913 27.6611M106.929 10.8681C107.581 10.3406 107.957 9.54507 107.951 8.70674 107.363 8.31358 106.656 8.13815 105.952 8.21083 105.762 8.71433 105.513 9.19386 105.212 9.63966L105.412 9.72851C105.346 9.74519 105.284 9.77278 105.227 9.81012 105.235 9.85088 105.247 9.89061 105.264 9.92842 105.508 9.91685 105.727 9.77174 105.832 9.55081 106.824 9.38809 106.846 9.74349 106.772 10.8019 106.817 10.8183 106.86 10.8407 106.898 10.8686" fill="#003F88" fill-rule="evenodd" transform="matrix(1.00364 0 0 1 629.345 30.576)"/><path d="M38.5049 26.8098 41.4142 23.2197 38.7343 23.2197 38.7343 22.6566 42.2133 22.6566 42.2133 23.2042 39.304 26.8016 42.2133 26.8016 42.2133 27.3698 38.5049 27.3698 38.5049 26.8098Z" fill="#003F88" transform="matrix(1.00364 0 0 1 605.958 39.8096)"/><path d="M42.1054 22.6566 42.7418 22.6566 42.7418 24.5886 45.1996 24.5886 45.1996 22.6566 45.8438 22.6566 45.8438 27.3719 45.1996 27.3719 45.1996 25.1506 42.7418 25.1506 42.7418 27.3719 42.1054 27.3719Z" fill="#003F88" transform="matrix(1.00364 0 0 1 607.523 39.8096)"/><path d="M45.9125 27.3719 45.9125 22.6566 49.3621 22.6566 49.3621 23.2192 46.5489 23.2192 46.5489 24.6625 49.1173 24.6625 49.1173 25.225 46.5489 25.225 46.5489 26.8016 49.39 26.8016 49.39 27.3698Z" fill="#003F88" transform="matrix(1.00364 0 0 1 609.177 39.8096)"/><path d="M51.2496 22.6566 51.8861 22.6566 51.8861 26.0469C51.9145 26.4376 51.7864 26.8236 51.5307 27.1203 51.2702 27.3837 50.9085 27.5214 50.5389 27.4979 50.1641 27.5229 49.7954 27.3946 49.5171 27.1425 49.2701 26.8833 49.1484 26.5292 49.1839 26.1729L49.1839 25.8469 49.7836 25.8469 49.7836 26.1729C49.7678 26.3821 49.8342 26.5893 49.9686 26.7504 50.1038 26.8947 50.2966 26.9705 50.4939 26.9571 50.7054 26.9587 50.9075 26.8698 51.0492 26.7127 51.1896 26.5197 51.2601 26.2847 51.2491 26.0463Z" fill="#003F88" transform="matrix(1.00364 0 0 1 610.596 39.8096)"/><path d="M52.2921 22.6566 52.9285 22.6566 52.9285 27.3719 52.2921 27.3719Z" fill="#003F88" transform="matrix(1.00364 0 0 1 611.949 39.8096)"/><path d="M55.455 22.6566 56.1953 22.6566 57.8901 27.3646 57.2015 27.3646 56.7056 26.0024 54.8253 26.0024 54.3294 27.3646 53.6713 27.3646ZM55.033 25.4399 56.5124 25.4399 55.7722 23.3452 55.7722 23.3452Z" fill="#003F88" transform="matrix(1.00364 0 0 1 612.548 39.8096)"/><path d="M58.0874 27.3719 57.4733 27.3719 57.4733 22.6566 58.2357 22.6566 60.5969 26.4834 60.5969 22.6566 61.2132 22.6566 61.2132 27.3719 60.5174 27.3719 58.0895 23.5229Z" fill="#003F88" transform="matrix(1.00364 0 0 1 614.2 39.8096)"/><path d="M63.4861 27.5377C62.8791 27.559 62.2944 27.3061 61.8945 26.8491 61.4787 26.3473 61.2649 25.7086 61.2948 25.0576 61.2597 24.3984 61.4797 23.751 61.909 23.2496 62.6952 22.4396 63.9582 22.3323 64.87 22.9981 65.2316 23.2618 65.4676 23.6638 65.5214 24.1082L64.9072 24.1082C64.8648 23.8099 64.7016 23.5421 64.4557 23.3679 64.1731 23.1888 63.8425 23.101 63.5083 23.1164 63.0718 23.1046 62.656 23.3029 62.3905 23.6495 61.8279 24.5055 61.8279 25.6139 62.3905 26.4699 62.6761 26.8124 63.1074 26.9991 63.5527 26.9731 64.0058 26.9849 64.4397 26.7884 64.7295 26.44 64.7775 26.3851 64.8194 26.3256 64.8555 26.2623 64.9185 26.1545 64.9635 26.037 64.9888 25.9146 65.0234 25.7766 65.0404 25.6348 65.0404 25.4926L65.0404 25.4332 63.56 25.4332 63.56 24.8949 65.618 24.8949 65.618 27.3894 65.2181 27.3894 65.0699 26.7974 65.0699 26.7974C64.6959 27.2511 64.1328 27.5055 63.545 27.486" fill="#003F88" transform="matrix(1.00364 0 0 1 615.86 39.7693)"/><path d="M71.0858 25.6331C71.1752 26.5703 70.4882 27.4025 69.5506 27.492 69.4457 27.5019 69.3403 27.5022 69.2355 27.4927 68.7292 27.5257 68.2308 27.3552 67.8511 27.019 67.5122 26.6409 67.3412 26.1412 67.3774 25.6346L67.3774 22.6721 68.0138 22.6721 68.0138 25.6331C67.9864 25.9936 68.097 26.351 68.3237 26.6326 68.8429 27.0872 69.6183 27.0872 70.1374 26.6326 70.3642 26.351 70.4747 25.9936 70.4473 25.6331L70.4473 22.6721 71.0838 22.6721Z" fill="#003F88" transform="matrix(1.00364 0 0 1 618.502 39.8163)"/><path d="M71.841 27.3719 71.2212 27.3719 71.2212 22.6566 71.9909 22.6566 74.3521 26.4834 74.3521 22.6566 74.9663 22.6566 74.9663 27.3719 74.2705 27.3719 71.8426 23.5229Z" fill="#003F88" transform="matrix(1.00364 0 0 1 620.173 39.8096)"/><path d="M75.0572 22.6566 75.6936 22.6566 75.6936 27.3719 75.0572 27.3719Z" fill="#003F88" transform="matrix(1.00364 0 0 1 621.841 39.8096)"/><path d="M76.3693 22.6566 77.0801 22.6566 78.4345 26.6859 78.4345 26.6859 79.7817 22.6566 80.4925 22.6566 78.7765 27.3719 78.0879 27.3719Z" fill="#003F88" transform="matrix(1.00364 0 0 1 622.411 39.8096)"/><path d="M80.0989 27.3719 80.0989 22.6566 83.5408 22.6566 83.5408 23.2192 80.7353 23.2192 80.7353 24.6625 83.2964 24.6625 83.2964 25.225 80.7353 25.225 80.7353 26.8016 83.5764 26.8016 83.5764 27.3698Z" fill="#003F88" transform="matrix(1.00364 0 0 1 624.032 39.8096)"/><path d="M83.7149 22.6582 85.9361 22.6582C86.3426 22.6281 86.7471 22.7436 87.0762 22.9841 87.351 23.2224 87.4961 23.5767 87.4682 23.9393 87.4904 24.4017 87.2461 24.8361 86.8391 25.0571L86.9501 25.1088C87.2384 25.2821 87.4088 25.5992 87.3944 25.9353L87.3944 26.7938C87.3918 26.9002 87.4119 27.0059 87.4538 27.1038 87.4956 27.175 87.5612 27.2297 87.6387 27.2587L87.6387 27.362 86.854 27.362C86.8215 27.264 86.8039 27.1616 86.8024 27.0583 86.807 26.8774 86.7946 26.6965 86.7652 26.518L86.7652 26.1481C86.7771 25.9186 86.7001 25.6933 86.5503 25.5189 86.3586 25.3775 86.121 25.3116 85.8839 25.334L84.4034 25.334 84.4034 27.362 83.7665 27.362ZM84.3513 24.7828 85.9278 24.7828C86.1613 24.8013 86.3933 24.7327 86.5792 24.5901 86.7275 24.4217 86.7998 24.1995 86.7791 23.9759 86.7993 23.7565 86.7202 23.5394 86.5642 23.384 86.3695 23.2363 86.1267 23.1675 85.8834 23.1913L84.3513 23.1913Z" fill="#003F88" transform="matrix(1.00364 0 0 1 625.604 39.8081)"/><path d="M90.4509 24.0622C90.4349 23.7928 90.3057 23.5426 90.0955 23.3736 89.8548 23.2028 89.5634 23.1192 89.269 23.1365 88.9797 23.1152 88.6915 23.1877 88.4471 23.3431 88.2622 23.4892 88.1578 23.7146 88.1661 23.9501 88.1558 24.1099 88.2286 24.2637 88.3588 24.3572 88.5892 24.4865 88.8392 24.5766 89.099 24.6237L89.9209 24.8236C90.2722 24.8817 90.5991 25.0411 90.861 25.2823 91.061 25.5251 91.1617 25.8347 91.1426 26.1486 91.157 26.5465 90.9742 26.926 90.6539 27.1626 90.2722 27.4327 89.8109 27.5657 89.3439 27.5403 88.8263 27.572 88.3139 27.4172 87.9006 27.1038 87.5592 26.8168 87.3701 26.3872 87.3897 25.9415L87.3897 25.9043 88.0039 25.9043C88.0024 26.2121 88.1413 26.5038 88.3815 26.6962 88.6718 26.8963 89.0215 26.9927 89.3733 26.97 89.6828 26.9938 89.9922 26.9242 90.2618 26.7701 90.4602 26.6401 90.5759 26.4151 90.565 26.1781 90.579 25.9886 90.5051 25.8031 90.3651 25.6749 90.1198 25.5248 89.8486 25.4218 89.5655 25.3712L88.7436 25.1713C88.4141 25.1179 88.1046 24.9773 87.8479 24.7642 87.6645 24.563 87.571 24.2956 87.5896 24.024 87.5695 23.6147 87.7384 23.2188 88.0483 22.9506 88.4001 22.6703 88.8428 22.5305 89.2917 22.5585 89.7473 22.532 90.1967 22.6713 90.5573 22.9506 90.8729 23.2279 91.0558 23.6261 91.0604 24.0462Z" fill="#003F88" transform="matrix(1.00364 0 0 1 627.199 39.7657)"/><path d="M91.1018 22.6566 91.7382 22.6566 91.7382 27.3719 91.1018 27.3719Z" fill="#003F88" transform="matrix(1.00364 0 0 1 628.813 39.8096)"/><path d="M94.0798 23.2192 92.4784 23.2192 92.4784 22.6566 96.3051 22.6566 96.3051 23.2192 94.7136 23.2192 94.7136 27.3719 94.0772 27.3719Z" fill="#003F88" transform="matrix(1.00364 0 0 1 629.413 39.8096)"/><path d="M97.703 25.4843 95.9265 22.6566 96.6667 22.6566 98.0212 24.944 98.0212 24.944 99.3756 22.6566 100.116 22.6566 98.3394 25.4916 98.3394 27.3719 97.703 27.3719Z" fill="#003F88" transform="matrix(1.00364 0 0 1 630.91 39.8096)"/><path d="M21 0C32.598-3.67043e-15 42 9.40204 42 21 42 32.598 32.598 42 21 42 9.40204 42-6.30573e-08 32.598-6.30573e-08 21-6.30573e-08 9.40204 9.40204-6.30573e-08 21-6.30573e-08M21 0.836322C9.8639 0.836322 0.836322 9.8639 0.836322 21 0.836322 32.1361 9.8639 41.1637 21 41.1637 32.1361 41.1637 41.1637 32.1361 41.1637 21 41.1637 9.8639 32.1361 0.836322 21 0.836322" fill="#003F88" transform="matrix(1.00364 0 0 1 589.226 30)"/><path d="M10.7818 27.1162C9.45726 26.0139 8.39091 24.6342 7.65811 23.0745 4.94008 17.2713 7.44115 10.3634 13.2444 7.6454 19.0476 4.92735 25.9555 7.42844 28.6736 13.2317 30.9225 18.0335 29.6303 23.7489 25.5344 27.1162L25.2901 26.7757C30.0526 22.8472 30.7286 15.8017 26.8001 11.0392 22.8715 6.2767 15.8261 5.60067 11.0636 9.52922 7.12501 12.7781 5.88824 18.2827 8.05845 22.9041 8.76196 24.3965 9.78249 25.7176 11.0489 26.7752Z" fill="#003F88" transform="matrix(1.00364 0 0 1 592.074 32.8334)"/><path d="M2.34676 20.5625 1.55487 18.4378 1.98413 18.2896 5.61147 18.8449 5.06236 17.3499 5.49162 17.2017 6.21482 19.1486 5.77832 19.2969 2.1546 18.7416 2.77448 20.4142Z" fill="#003F88" fill-rule="evenodd" transform="matrix(1.00364 0 0 1 589.901 37.4479)"/><path d="M3.36388 22.7145 3.15106 22.2852 4.85573 21.4117 4.31127 20.3527 2.6066 21.2335 2.38447 20.8115 6.0335 18.9311 6.25563 19.3604 4.71832 20.1461 5.25865 21.1973 6.79854 20.4127 7.01343 20.8347Z" fill="#003F88" fill-rule="evenodd" transform="matrix(1.00364 0 0 1 590.263 38.1969)"/><path d="M4.66873 24.3732 3.37318 22.56 6.79286 20.4354 8.029 22.1607 7.65139 22.3901 6.71124 21.0801 5.64556 21.7387 6.51184 22.9454 6.13423 23.1825 5.26898 21.9753 4.04679 22.7377 5.04583 24.1366Z" fill="#003F88" fill-rule="evenodd" transform="matrix(1.00364 0 0 1 590.692 38.8478)"/><path d="M6.43901 26.2116 6.00251 25.85 8.52646 22.7558 8.95572 23.1174Z" fill="#003F88" fill-rule="evenodd" transform="matrix(1.00364 0 0 1 591.834 39.852)"/><path d="M8.1163 27.2918 8.62719 26.1961 8.00731 25.7447 7.07439 26.6476 6.64512 26.3222 9.60608 23.4057 10.2058 23.7673 8.6215 27.6162ZM8.85654 25.6631 9.47074 24.2492 9.41133 24.1975 8.34566 25.286Z" fill="#003F88" fill-rule="evenodd" transform="matrix(1.00364 0 0 1 592.113 40.1335)"/><path d="M10.3112 28.5145 9.78585 28.2629 10.0958 25.4218 8.92628 27.8125 8.39318 27.5681 10.2435 23.9041 10.7244 24.1263 10.5023 26.8279 11.709 24.6 12.1533 24.7849Z" fill="#003F88" fill-rule="evenodd" transform="matrix(1.00364 0 0 1 592.874 40.3484)"/><path d="M12.2003 28.968 11.8526 28.857 11.8526 28.5315C11.7591 28.6066 11.646 28.6528 11.5267 28.6648 11.3924 28.6857 11.255 28.6729 11.1269 28.6276 10.823 28.5184 10.5893 28.2709 10.4977 27.9613 10.3545 27.473 10.3833 26.9503 10.5793 26.4808 10.6941 25.9514 10.9499 25.4629 11.3195 25.0669 11.6583 24.765 12.1334 24.6689 12.5629 24.8154 13.0072 24.9559 13.3032 25.4962 13.1699 26.2442L12.6368 26.207C12.7256 25.8816 12.6812 25.3805 12.3702 25.2818 12.1072 25.1905 11.8151 25.2665 11.63 25.4745 11.3841 25.8202 11.2063 26.2096 11.1062 26.6218 10.9604 26.9881 10.9168 27.3872 10.9801 27.7763 11.0184 27.9825 11.1616 28.1537 11.3578 28.2278 11.5167 28.2882 11.6954 28.2631 11.8315 28.1612 12.0054 28.0042 12.1268 27.7976 12.1791 27.5692L12.253 27.3321 11.6228 27.1327 11.7488 26.7194 12.785 27.0598Z" fill="#003F88" fill-rule="evenodd" transform="matrix(1.00364 0 0 1 593.749 40.7151)"/><path d="M16.1386 27.9328C16.1473 28.2478 16.0422 28.5554 15.8426 28.7991 15.6187 29.0218 15.3044 29.1284 14.9913 29.0879 14.6729 29.1034 14.3648 28.9725 14.155 28.7325 13.973 28.4738 13.8889 28.1589 13.9179 27.844L14.0067 25.0545 14.4954 25.0545 14.4065 27.8672C14.3834 28.0746 14.4387 28.2832 14.5615 28.452 14.6746 28.5785 14.8361 28.6511 15.0058 28.6519 15.1739 28.6637 15.3388 28.6014 15.4572 28.4814 15.5921 28.3238 15.6611 28.1204 15.6499 27.9132L15.7388 25.1238 16.2347 25.1238Z" fill="#003F88" fill-rule="evenodd" transform="matrix(1.00364 0 0 1 595.272 40.8474)"/><path d="M18.162 28.7728 17.7177 28.8467 16.3333 26.1745 16.5482 29.0393 16.0229 29.1132 15.7191 25.0938 16.3189 25.0421 17.4662 26.9131 17.2533 24.8985 17.6898 24.8247Z" fill="#003F88" fill-rule="evenodd" transform="matrix(1.00364 0 0 1 596.057 40.7487)"/><path d="M18.9461 28.4396 18.4352 28.5946 17.3618 24.7906 17.8784 24.6356Z" fill="#003F88" fill-rule="evenodd" transform="matrix(1.00364 0 0 1 596.77 40.6661)"/><path d="M20.0671 23.9274 20.7185 28.1245 20.2153 28.3761 17.9869 24.8081 18.4755 24.6015 20.0227 27.0366 19.5934 24.135Z" fill="#003F88" fill-rule="evenodd" transform="matrix(1.00364 0 0 1 597.042 40.3598)"/><path d="M23.5038 26.6301 21.6312 27.6441 19.5882 24.1356 21.3719 23.1732 21.5941 23.5653 20.2319 24.2983 20.8693 25.3867 22.1204 24.7152 22.3498 25.1 21.0981 25.7767 21.8213 27.0278 23.2724 26.2432Z" fill="#003F88" fill-rule="evenodd" transform="matrix(1.00364 0 0 1 597.738 40.0333)"/><path d="M25.0535 25.4306 24.6402 25.7782 23.1598 24.5793 22.7822 24.9197 23.7667 26.2519 23.3535 26.6884 20.9468 23.3065 21.687 22.7589C21.9313 22.5687 22.2365 22.4739 22.5456 22.4924 23.1301 22.5009 23.5969 22.9818 23.5883 23.5663 23.5878 23.6006 23.5856 23.635 23.5818 23.6691 23.5812 23.8577 23.5513 24.0451 23.493 24.2244ZM22.4552 23.0472C22.1514 22.9655 21.9148 23.2021 21.7149 23.3731L22.5161 24.4336C22.7426 24.3101 22.9298 24.1253 23.0565 23.9005 23.1496 23.5318 22.9262 23.1574 22.5575 23.0643 22.5316 23.0577 22.5054 23.0527 22.4789 23.0492" fill="#003F88" fill-rule="evenodd" transform="matrix(1.00364 0 0 1 598.328 39.7373)"/><path d="M25.6894 22.6923C26.2209 23.0446 26.3661 23.761 26.0139 24.2924 25.8348 24.5626 25.5504 24.7451 25.2302 24.7952 24.958 24.8316 24.6813 24.7825 24.4383 24.6547L24.6232 24.2254C24.7957 24.2893 24.9802 24.3145 25.1635 24.2993 25.5168 24.2568 25.7686 23.9361 25.7261 23.5828 25.703 23.3902 25.5942 23.2183 25.4301 23.1148 25.274 23.0161 25.0866 22.9792 24.9047 23.0115 24.4238 23.0632 24.1128 23.4248 23.5797 23.463 23.0325 23.5143 22.5466 23.1142 22.4918 22.5673 22.4409 22.2801 22.5019 21.9843 22.6623 21.7408 22.9879 21.2601 23.6415 21.1343 24.1222 21.4599 24.1291 21.4646 24.136 21.4694 24.1428 21.4742L23.9579 21.9107C23.6655 21.7498 23.3016 21.8043 23.0694 22.044 22.9776 22.1696 22.9428 22.3279 22.9733 22.4805 22.9938 22.7651 23.2411 22.9791 23.5257 22.9586 23.5389 22.9576 23.5522 22.9561 23.5653 22.9542 24.0818 22.8875 24.4316 22.4583 24.9497 22.4805 25.2219 22.4859 25.4884 22.5598 25.7245 22.6954" fill="#003F88" fill-rule="evenodd" transform="matrix(1.00364 0 0 1 598.991 39.2114)"/><path d="M27.0883 22.558 26.7923 22.9278 23.3282 20.7582 23.6319 20.3884Z" fill="#003F88" fill-rule="evenodd" transform="matrix(1.00364 0 0 1 599.363 38.8276)"/><path d="M25.1537 18.9162 24.7761 19.627 28.0403 21.5517 27.8182 21.9587 24.554 20.0428 24.1691 20.7458 23.7621 20.5077 24.7467 18.6796Z" fill="#003F88" fill-rule="evenodd" transform="matrix(1.00364 0 0 1 599.551 38.0874)"/><path d="M25.427 16.9641 27.4183 18.7405 28.7506 19.3196 28.5879 19.7639 27.3589 19.2902 24.5178 19.2235 24.6583 18.7648 26.6419 18.7943 25.2343 17.5044Z" fill="#003F88" fill-rule="evenodd" transform="matrix(1.00364 0 0 1 599.879 37.3446)"/><path d="M6.74637 24.6289C6.49521 24.927 6.14121 25.1198 5.75456 25.1692 5.4395 25.1749 5.13766 25.0429 4.92805 24.8076 4.71101 24.5951 4.58979 24.3034 4.59228 23.9997 4.59564 23.8307 4.64147 23.6654 4.72556 23.5188L5.17704 23.7926C5.14195 23.8616 5.12172 23.9373 5.11763 24.0147 5.1054 24.1673 5.1594 24.3179 5.26588 24.4279 5.38516 24.569 5.56214 24.6481 5.74681 24.6428 5.98546 24.5878 6.19901 24.455 6.35378 24.2652L8.37459 22.2888 8.74445 22.6664Z" fill="#003F88" fill-rule="evenodd" transform="matrix(1.00364 0 0 1 591.221 39.6505)"/><path d="M11.2772 24.3422 9.8561 23.4764 9.98214 23.2615 10.4987 23.5797 11.3252 22.0993 10.8086 21.781 10.9197 21.5884C11.0634 21.6847 11.2242 21.7525 11.3934 21.7883 11.511 21.8033 11.6266 21.7484 11.6894 21.6478L12.0153 21.8477 10.8996 23.7946 11.4104 24.1128ZM15.4454 23.4614C15.4682 23.3458 15.4221 23.2274 15.3271 23.1577 15.195 23.0546 15.0354 22.9928 14.8684 22.98 14.7104 22.9414 14.5454 22.9414 14.3874 22.98 14.2734 23.0156 14.1864 23.1083 14.1581 23.2243 14.1411 23.3024 14.1601 23.3839 14.2097 23.4465 14.2756 23.5283 14.3591 23.5942 14.4541 23.6391 14.4985 23.6391 14.5724 23.7058 14.6762 23.7502 14.7695 23.7965 14.866 23.8361 14.9649 23.8685 15.0926 23.8321 15.2111 23.7691 15.3126 23.6836 15.3798 23.6112 15.4259 23.5219 15.4459 23.4253M15.2609 24.6764C15.2851 24.5911 15.2716 24.4995 15.2237 24.4248 15.1325 24.3243 15.0215 24.2436 14.8978 24.1877L14.6829 24.0917 14.373 23.9584C14.2348 23.987 14.1055 24.048 13.9954 24.1361 13.9092 24.2129 13.8475 24.3133 13.8177 24.4248 13.7859 24.5739 13.8402 24.7282 13.9582 24.8247 14.0941 24.9518 14.2687 25.03 14.4541 25.0468 14.6281 25.0852 14.809 25.0797 14.9804 25.0308 15.1175 24.979 15.2162 24.8574 15.2387 24.7126M14.3724 25.3268C14.2 25.3067 14.0308 25.2643 13.8693 25.2007 13.7332 25.1538 13.6076 25.0808 13.4994 24.9858 13.4113 24.9153 13.3425 24.8236 13.2995 24.7193 13.2701 24.6202 13.2701 24.5147 13.2995 24.4155 13.3204 24.2786 13.3917 24.1544 13.4994 24.0674 13.6588 23.9594 13.8415 23.8909 14.0325 23.8675L14.0325 23.8675C13.8919 23.7957 13.7664 23.6977 13.6627 23.5787 13.5894 23.4843 13.5612 23.3625 13.5857 23.2455 13.64 23.039 13.8013 22.8778 14.0077 22.8235 14.2855 22.7253 14.5837 22.6999 14.874 22.7496 15.1643 22.7756 15.4426 22.8777 15.6809 23.0456 15.8485 23.1507 15.9362 23.3465 15.903 23.5415 15.8698 23.6667 15.7937 23.7764 15.6881 23.8514 15.5427 23.9533 15.3753 24.0193 15.1995 24.0441L15.1995 24.0441C15.3712 24.1202 15.5268 24.2281 15.6582 24.3623 15.7526 24.4725 15.7883 24.6212 15.7543 24.7622 15.6916 24.9913 15.5163 25.1727 15.2894 25.2431 14.9899 25.3577 14.6648 25.3884 14.3492 25.3319M19.1905 23.7998C19.1971 23.6583 19.1718 23.517 19.1166 23.3865 19.0778 23.286 19.0109 23.1986 18.9239 23.135 18.8544 23.085 18.7769 23.0474 18.6946 23.0239 18.6133 23.0158 18.5315 23.0158 18.4502 23.0239 18.2725 23.012 18.0964 23.0647 17.9543 23.1722 17.8278 23.2776 17.7591 23.4371 17.7694 23.6014 17.7635 23.6941 17.7841 23.7866 17.8288 23.868 17.8773 23.9449 17.9466 24.0065 18.0287 24.0457 18.0956 24.0811 18.1684 24.1037 18.2436 24.1123 18.447 24.1233 18.651 24.1084 18.8506 24.0679 18.9624 24.0479 19.0717 24.0157 19.1765 23.9718 19.1805 23.9498 19.1805 23.9272 19.1765 23.9052 19.1804 23.8732 19.1804 23.841 19.1765 23.8091M17.2373 23.5942C17.2389 23.4696 17.272 23.3473 17.3334 23.2388 17.4016 23.1322 17.4893 23.0394 17.5917 22.965 17.7096 22.8855 17.8395 22.8255 17.9765 22.7873 18.1265 22.7493 18.2805 22.7297 18.4352 22.729 18.5951 22.7281 18.7543 22.7481 18.9089 22.7884 19.0389 22.8225 19.1615 22.8803 19.2705 22.9588 19.4017 23.048 19.5066 23.1708 19.5743 23.3142 19.6535 23.4929 19.6914 23.6871 19.6853 23.8824 19.6853 24.0843 19.6504 24.2845 19.582 24.4744 19.514 24.6502 19.4082 24.8089 19.2721 24.9393 19.1191 25.073 18.9403 25.1738 18.7467 25.2353 18.5066 25.307 18.257 25.3418 18.0065 25.3386L17.5772 25.3386 17.5772 25.0127 17.5772 25.0127C17.6411 25.0392 17.7084 25.0566 17.7771 25.0644L18.0437 25.0644C18.3227 25.08 18.5989 25.0018 18.8284 24.8422 19.0206 24.6926 19.1371 24.4658 19.1466 24.2223 19.0227 24.2788 18.8939 24.3233 18.7617 24.3556 18.6308 24.3867 18.4965 24.4015 18.3619 24.4 18.2337 24.4083 18.1052 24.4083 17.977 24.4 17.8584 24.3774 17.7438 24.3375 17.6366 24.2818 17.5123 24.2245 17.4054 24.1354 17.3267 24.0235 17.2577 23.907 17.222 23.7739 17.2234 23.6386M22.7083 21.4918 22.6122 24.0824 22.2201 24.3339 22.2201 21.8849 20.7376 22.6256 20.6043 22.3369 22.5068 21.3451Z" fill="#003F88" fill-rule="evenodd" transform="matrix(1.00364 0 0 1 593.509 39.2414)"/><path d="M19.4927 7.22057C19.1827 7.07232 19.3966 7.01395 19.4188 6.7319 19.441 6.44986 19.2705 6.1988 19.3227 6.02885 19.456 5.56394 20.0629 5.74009 20.3812 5.9772 20.4539 6.05479 20.507 6.14865 20.5361 6.25098 20.6472 6.53251 20.7582 6.93181 20.4328 7.13947 20.1492 7.31149 19.8017 7.34171 19.4927 7.22109" fill="#003F88" fill-rule="evenodd" transform="matrix(1.00364 0 0 1 597.618 32.4837)"/><path d="M17.273 7.29186 17.273 7.29186C17.2688 7.25999 17.2688 7.22765 17.273 7.19578 17.6558 7.0856 18.0315 6.95211 18.3981 6.79596 18.7127 6.69058 18.9767 6.47155 19.1383 6.18176 18.4718 6.34468 17.7886 6.42909 17.1025 6.43333 16.8755 6.28538 16.6624 6.11698 16.4661 5.93019L16.4661 5.93019C16.1846 5.62645 16.2218 5.33046 16.6288 5.30101 17.243 5.60475 18.3536 5.38263 19.0195 5.30101 19.2742 5.28712 19.5246 5.22947 19.7597 5.13054 20.0535 4.30615 20.3008 3.46592 20.5005 2.61383 20.8559 2.0735 21.1297 2.56217 21.4257 2.95425 21.4257 3.0059 21.5073 3.08029 21.5589 3.21253L21.5589 3.21253C21.655 3.50129 21.67 3.61959 21.374 3.79728 21.1041 4.17221 20.9197 4.60174 20.8337 5.05564 21.2924 5.10007 21.6602 4.77411 22.1809 4.89292 22.2717 5.13804 22.1501 5.41083 21.9071 5.50712 21.4778 5.6032 21.0336 5.66209 20.5527 5.75146 20.3494 6.2079 20.0427 6.61077 19.6569 6.9282 19.532 7.00981 19.4009 7.08167 19.2649 7.14309 18.9643 7.25839 18.6511 7.33799 18.3319 7.38019 17.9806 7.42545 17.6249 7.42545 17.2735 7.38019" fill="#003F88" fill-rule="evenodd" transform="matrix(1.00364 0 0 1 596.302 31.028)"/><path d="M10.1387 9.33437C9.75263 9.26628 9.38778 9.10925 9.07298 8.87565 9.0656 8.77952 9.0656 8.68303 9.07298 8.58689 9.62432 7.76039 10.1189 6.89746 10.5535 6.00406 10.6351 5.61198 10.7684 5.17755 10.8717 4.78289L10.8717 4.78289C11.0049 4.56077 11.0716 4.4869 11.3231 4.6646 11.4192 4.86451 11.1382 5.22714 11.101 5.46425 11.1103 5.89692 11.0904 6.32975 11.0416 6.7598 10.9874 6.94896 10.9479 7.14206 10.9233 7.33732 10.7719 7.66053 10.6842 8.00989 10.665 8.36632 10.4801 8.59568 10.5467 9.04716 10.3174 9.30647L10.1469 9.39532" fill="#003F88" fill-rule="evenodd" transform="matrix(1.00364 0 0 1 593.166 31.9764)"/><path d="M12.5159 5.3816C12.051 5.54431 11.7757 5.29998 11.4502 5.13726 11.3908 5.01897 11.4502 4.91514 11.4502 4.82732 11.5143 4.79637 11.5682 4.74759 11.6052 4.68681 11.7901 4.5835 11.8635 4.56852 12.0639 4.47192 12.2643 4.37532 12.8041 3.57619 13.1074 3.68726 13.2715 4.31199 13.0545 4.97495 12.5526 5.3816" fill="#003F88" fill-rule="evenodd" transform="matrix(1.00364 0 0 1 594.19 31.5915)"/><path d="M9.68098 5.68637C9.44388 5.59752 9.13342 4.94613 9.02959 4.68733 9.02959 4.24308 9.39945 4.06745 9.82924 4.19143 10.2291 4.43576 10.4734 4.50963 10.3546 5.02775 10.2188 5.32204 9.97992 5.55635 9.68305 5.68637" fill="#003F88" fill-rule="evenodd" transform="matrix(1.00364 0 0 1 593.15 31.7977)"/><path d="M12.1243 4.79064C11.9911 4.59073 12.1243 4.0504 11.9761 3.93934 11.8728 3.99875 11.7762 4.08759 11.6662 4.13925 11.333 4.13925 10.9259 3.89492 10.9259 3.59169 10.9259 3.28847 10.9776 3.36957 11.2875 3.22183L12.0283 2.47952C12.502 2.18353 12.8501 2.36846 13.0795 2.86436 13.0894 3.22188 13.0238 3.57746 12.8868 3.90783 12.6719 4.1594 12.4947 4.4244 12.3093 4.64807 12.2431 4.6842 12.1788 4.72369 12.1166 4.76636" fill="#003F88" fill-rule="evenodd" transform="matrix(1.00364 0 0 1 593.973 31.0125)"/><path d="M9.57612 4.28751C9.43561 4.23585 9.43561 4.16921 9.48004 4.02096 9.37673 3.81433 9.18404 3.695 9.0952 3.49561 9.01358 3.08855 8.88857 2.98472 9.0952 2.6815 9.38396 2.6815 10.3907 2.79256 10.3685 3.34012 10.2142 3.7352 9.92207 4.06107 9.54616 4.25755" fill="#003F88" fill-rule="evenodd" transform="matrix(1.00364 0 0 1 593.129 31.1607)"/><path d="M6.80216 16.3535C6.36566 16.6572 5.32167 16.4568 5.45495 15.8369 5.38661 15.7664 5.35876 15.666 5.38108 15.5704L5.38108 15.5704C5.20385 14.9223 4.98383 14.2867 4.72246 13.6678 4.61914 13.4752 4.4931 13.3202 4.5742 13.1053 4.72246 13.0681 4.87794 13.2313 5.00347 13.3496 5.06287 13.3496 5.13674 13.1719 5.16619 13.0681 5.12176 12.6388 5.16619 12.1352 5.09232 11.6915 4.98126 11.5954 4.87019 11.4988 4.76636 11.3955 4.67752 11.6176 4.3965 12.3506 4.14648 11.958 4.2443 11.5939 4.22624 11.2085 4.09483 10.8551 3.8727 10.6258 3.56948 10.4631 3.47495 10.2037 3.51214 9.84215 4.06693 9.7595 4.38565 9.90001 4.64394 9.90001 4.64394 9.4351 4.93322 10.2477 4.93322 10.3737 5.06649 10.4625 5.21474 10.5292L5.28138 10.4476C5.25948 10.0852 5.25948 9.722 5.28138 9.35968 4.96374 9.07934 4.69735 8.74579 4.49413 8.37407 4.49413 7.99646 4.9234 7.77433 5.29378 7.63383 5.39973 7.43965 5.43873 7.21598 5.40484 6.99742 5.43206 6.91973 5.47205 6.8471 5.52314 6.78253 5.65863 6.80267 5.78777 6.85335 5.90075 6.93078 6.19674 7.30839 5.57479 8.4779 6.15903 8.57398 6.27009 8.37407 6.1146 8.16693 6.02575 8.00576 6.02575 7.717 6.49945 7.35437 6.81765 7.26552 7.28256 7.22109 7.25415 7.48764 7.2619 7.8854L7.32854 8.04811C7.92052 8.47738 7.92052 8.47738 8.74238 9.03269 8.88237 9.23767 8.97825 9.46955 9.02391 9.71353L9.02391 9.71353C9.13497 9.94288 9.1422 10.3277 8.86119 10.3577 8.18965 9.90621 7.52122 9.38809 6.86259 8.96605 6.85939 8.98067 6.85939 8.99586 6.86259 9.01048 7.23514 9.41015 7.47777 9.91339 7.55841 10.4538 7.41026 10.7125 7.10533 10.8376 6.81817 10.7575 6.78748 10.6903 6.77467 10.6163 6.78098 10.5426 6.48493 10.1819 6.12333 9.88048 5.7153 9.65412 5.597 9.88348 5.82636 10.5648 5.90023 10.8458L5.90023 11.3345C6.10014 11.5789 6.30005 11.8082 6.52011 12.0748L6.77168 12.4968 6.77168 12.534C6.86776 12.7406 7.08162 13.3558 6.68283 13.3605 6.64305 13.3402 6.60581 13.3154 6.57177 13.2866 6.44076 12.9524 6.2237 12.6586 5.94259 12.4353 5.84651 12.7453 5.94259 13.0795 5.80208 13.346 5.68575 13.4663 5.55392 13.5706 5.41001 13.656L5.41001 13.656C5.33061 13.6561 5.25721 13.6984 5.21733 13.767 5.32839 13.9075 5.44668 14.063 5.56498 14.2035 5.94031 14.842 6.36907 15.4475 6.84658 16.0136 6.88589 16.1186 6.88589 16.2345 6.84658 16.3395" fill="#003F88" fill-rule="evenodd" transform="matrix(1.00364 0 0 1 590.734 32.9367)"/><path d="M4.2188 11.9611C4.0411 11.9611 3.96052 11.7612 3.82673 11.6651 3.36182 11.5318 3.01262 11.4358 2.85713 10.9765L2.92377 10.8505C3.25606 10.7538 3.59914 10.6992 3.94502 10.6878 4.52978 10.821 4.32986 11.5463 4.24102 11.9611" fill="#003F88" fill-rule="evenodd" transform="matrix(1.00364 0 0 1 590.467 34.6274)"/><path d="M3.35769 10.9936C3.25437 11.0674 3.23939 11.0452 3.18722 11.0452 3.13505 11.0452 3.1056 10.8526 2.99454 10.8081 2.48365 10.8081 1.95107 10.4083 2.03941 9.88296 2.13549 9.7719 2.23932 9.83854 2.43148 9.88296 2.86798 9.79411 3.51937 9.52756 3.54158 10.2234 3.49341 10.4734 3.43202 10.7206 3.35769 10.9641" fill="#003F88" fill-rule="evenodd" transform="matrix(1.00364 0 0 1 590.107 34.225)"/><path d="M27.4938 11.2224 22.3865 11.2224C20.906 11.2224 20.1652 12.7029 19.566 13.9985L18.7075 12.0665 20.1508 11.5334C19.3067 10.7337 16.6717 10.29 16.324 11.4962L15.7036 13.999C15.215 12.8739 14.5192 11.2229 12.9576 11.2229L7.77433 11.2229C8.44587 12.4147 9.0921 12.8439 11.4755 12.7406L11.7855 13.5625 9.1732 13.5625C9.91344 14.9804 10.3949 15.0419 12.4968 14.9804L12.941 15.965 10.883 16.0389C11.3273 17.0457 11.7937 17.4749 13.5552 17.3933L13.9029 18.2891 12.2674 18.2891C12.8816 19.3031 13.1854 19.7695 14.4887 19.6512L14.8363 20.5986 13.6963 20.5986C13.9472 21.3533 14.6573 21.8592 15.4526 21.8498 16.0725 21.9458 16.1928 23.1153 15.4526 23.493L17.6738 27.0609 19.8951 23.493C19.1548 23.1153 19.2587 21.9458 19.8951 21.8498 20.6903 21.8592 21.4004 21.3533 21.6514 20.5986L20.4395 20.5986 20.7872 19.6512C22.0827 19.7623 22.3885 19.3036 23.0084 18.2891L21.3719 18.2891 21.7196 17.4228C23.4811 17.5044 23.9408 17.0674 24.3845 16.0683L22.3343 15.9945 22.7785 15.0099C24.881 15.0693 25.3247 15.0099 26.1021 13.5888L23.4816 13.5888 23.7998 12.767C26.1832 12.8703 26.8274 12.441 27.501 11.2493" fill="#003F88" transform="matrix(1.00364 0 0 1 592.604 34.6553)"/><path d="M29.2181 9.93927 29.2181 9.89484C29.2919 9.70991 29.2847 9.63656 29.2697 9.60608 29.2033 9.55262 29.1244 9.51708 29.0404 9.50277L28.8554 9.50277 28.8554 9.45111C28.8317 9.42291 28.8042 9.39806 28.7738 9.37724L28.6777 9.34005 28.6777 9.34005 28.8038 9.24397C28.8832 9.17754 28.9733 9.1251 29.0703 9.089L29.122 9.089C29.3051 8.92803 29.419 8.70266 29.4402 8.45982 29.3673 8.37867 29.2599 8.33739 29.1514 8.34876 28.9496 8.36999 28.7509 8.41472 28.5594 8.48203 28.4288 8.5278 28.2952 8.56489 28.1596 8.59309L28.1152 8.59309C27.7892 8.43812 27.7748 8.43037 27.0939 8.07653 27.0423 8.10638 27.0029 8.1536 26.9829 8.2098 26.936 8.31069 26.936 8.42712 26.9829 8.52801L27.0423 8.57243 27.0423 8.57243 26.8796 8.66128 26.8424 8.66128 26.7979 8.7057C26.7925 8.7351 26.7925 8.76516 26.7979 8.79455L26.7979 8.86842C26.7969 8.92488 26.7728 8.97845 26.7313 9.01668L26.7313 9.0983 26.7313 9.0983 26.6352 9.02443C26.5519 8.96063 26.4727 8.89162 26.3981 8.8178L26.3165 8.8178C26.2554 8.81666 26.1966 8.84079 26.1538 8.88444 26.1538 8.88444 26.1538 8.97329 26.1538 9.04716L26.1538 9.08435C26.1538 9.18043 26.0505 9.34263 25.7467 9.3509L25.5918 9.3509C25.5552 9.34237 25.5172 9.34237 25.4807 9.3509 25.4807 9.55752 25.5696 9.57302 25.7906 9.60918 25.8858 9.61817 25.98 9.63547 26.0722 9.66084L26.1383 9.66084C26.1832 9.66559 26.2264 9.68078 26.2643 9.70526L26.4271 9.76467 26.4787 9.76467 26.2788 9.86075C26.204 9.89469 26.1362 9.94237 26.0789 10.0013 26.0645 10.0648 26.0338 10.1235 25.99 10.1717L25.99 10.2161 25.9084 10.2161 25.4719 10.1051 25.2426 10.0457C24.8427 9.94237 24.3468 9.80858 23.8804 9.73574 23.7756 9.69555 23.6663 9.66817 23.5549 9.65412L23.3328 9.65412 23.3328 9.72076C23.41 9.78104 23.4918 9.83544 23.5772 9.88348L23.5772 9.91809C23.6477 10.1238 23.793 10.2955 23.9842 10.399L24.5173 10.4729C25.1058 10.4861 25.6804 10.6547 26.1827 10.9616L26.301 11.0282 26.3382 11.0282 26.1605 11.117C26.1107 11.1408 26.0655 11.1733 26.0272 11.2131L25.9678 11.2131C25.7168 11.1699 25.4694 11.1081 25.2276 11.0282 25.0292 10.8163 24.6985 10.7998 24.4801 10.991L24.3913 10.991C24.3145 10.9658 24.2348 10.9509 24.1542 10.9466L23.6655 10.7839C23.1728 10.6451 22.7001 10.4435 22.2589 10.1841 22.1581 10.1001 22.0663 10.0057 21.9851 9.90259 21.9851 9.90259 21.9479 9.85817 21.9334 9.85817L21.9334 9.85817 21.9334 9.80651C21.8706 9.84861 21.8134 9.89841 21.763 9.95476 21.7335 10.3686 21.8722 10.7769 22.1478 11.0871 22.3099 11.1505 22.4787 11.1951 22.6509 11.2204 22.9763 11.2551 23.286 11.378 23.5467 11.5758L23.6283 11.5758 23.5544 11.6791C23.4525 11.8057 23.3385 11.9222 23.214 12.0267L23.1474 12.0489C23.1095 12.077 23.0748 12.1093 23.0441 12.145L22.8591 12.145C22.6568 12.1281 22.4617 12.062 22.2909 11.9523 22.2352 11.9179 22.1756 11.8905 22.1132 11.8707L22.1132 11.9327C22.3586 12.3499 22.6795 12.7177 23.0596 13.0175L23.0596 13.0691C23.1064 13.0974 23.1599 13.1127 23.2145 13.1136L23.2145 13.1136C23.5105 13.1136 23.8287 12.7003 24.0658 12.3733L24.2141 12.1884 24.2735 12.1884C24.4956 12.0179 24.5106 12.0107 24.5028 12.0035L24.6289 12.0479C24.7991 12.1014 24.961 12.1786 25.1098 12.2772 25.2875 12.1956 25.4714 12.019 25.4502 11.8258L25.3686 11.7297 25.0427 11.4409 24.991 11.4409 24.991 11.3448C25.032 11.2599 25.09 11.1843 25.1615 11.1227L25.2353 11.1227C25.5535 11.1966 25.8351 11.2854 26.1827 11.3893L26.4865 11.4926 26.5603 11.5442C26.6943 11.6745 26.8699 11.7531 27.0562 11.7664 27.093 11.7723 27.1305 11.7723 27.1673 11.7664 27.3162 11.6302 27.4412 11.4701 27.5372 11.2927L27.5372 11.2927C27.4778 11.2038 27.4483 11.1816 27.4411 11.1816L27.4927 11.115C27.5185 11.0881 27.5485 11.0655 27.5816 11.0483 28.0981 10.8856 28.655 10.6785 29.0621 10.5375 29.3136 10.3825 29.3358 10.367 29.247 10.1376 29.2311 10.0867 29.2112 10.0372 29.1876 9.98937M27.189 10.2931 27.2706 10.2192C27.3817 10.1159 27.4333 10.0643 27.4483 10.0126 27.4633 9.96096 27.4483 9.96819 27.3667 9.931L27.2851 9.931C27.2164 9.93276 27.1508 9.90259 27.1074 9.84938L27.1074 9.67168 27.1074 9.67168 27.2184 9.63449C27.3701 9.59864 27.5168 9.54399 27.6549 9.47177L27.6549 9.42012 27.7288 9.48675C27.9226 9.63924 28.0584 9.85341 28.1136 10.0937L28.1136 10.1381C27.9236 10.3426 27.652 10.4512 27.3734 10.4341L27.3068 10.4341 27.3068 10.3231 27.2551 10.3231Z" fill="#003F88" transform="matrix(1.00364 0 0 1 598.681 33.4956)"/><path d="M24.1428 9.61486C24.0281 9.61714 23.9161 9.58072 23.8246 9.51155 23.8116 9.25523 23.9022 9.00443 24.0762 8.81573 24.1206 8.7491 24.1578 8.70467 24.1872 8.65301L24.1872 8.60136 24.2316 8.51974C24.2869 8.41384 24.3364 8.305 24.3799 8.19379 24.4005 8.13805 24.4178 8.08112 24.4316 8.02332 24.5132 7.70511 24.5721 7.50675 24.7353 7.4551 24.8985 7.40344 24.9202 7.49229 24.9502 7.53671 24.9802 7.58114 24.9502 7.64778 24.9502 7.76607L24.9502 7.81049C24.9586 7.86179 24.9586 7.91417 24.9502 7.96546 24.9759 8.14967 24.9759 8.33657 24.9502 8.52077L24.9502 8.62409C24.9374 8.6869 24.9201 8.74868 24.8985 8.80902 24.8458 9.04385 24.7365 9.26231 24.5803 9.44543L24.5065 9.50483 24.462 9.50483C24.3598 9.57602 24.2385 9.61471 24.1139 9.6159Z" fill="#003F88" transform="matrix(1.00364 0 0 1 599.578 33.2203)"/><path d="M24.1371 9.5942 24.1371 9.5942C24.2584 9.58785 24.3758 9.54952 24.4775 9.48314L24.522 9.48314 24.5958 9.42373C24.7509 9.24371 24.8576 9.02722 24.9058 8.79455 24.9309 8.73541 24.9483 8.67326 24.9574 8.60962L24.9574 8.53575C24.9874 8.35186 24.9874 8.16434 24.9574 7.98044L24.9574 7.81773 24.9574 7.81773 24.9574 7.7733C24.9797 7.70093 24.9797 7.62355 24.9574 7.55118 24.9574 7.50675 24.8686 7.49177 24.7508 7.46956 24.633 7.44735 24.5359 7.72113 24.462 8.01712 24.4688 8.08551 24.4505 8.15401 24.4104 8.2098 24.3514 8.31218 24.2997 8.41849 24.2554 8.52801L24.211 8.61685 24.211 8.66851C24.1795 8.72456 24.145 8.77885 24.1077 8.83123 23.9744 9.02391 23.7895 9.28271 23.8494 9.51207 23.9396 9.57767 24.0478 9.61373 24.1593 9.61538" fill="#003F88" transform="matrix(1.00364 0 0 1 599.584 33.2337)"/><path d="M23.3328 9.08125C23.2385 9.06735 23.1495 9.02908 23.0745 8.97019 22.9041 8.57811 23.5188 8.14368 23.5911 8.08944 23.6828 8.10928 23.7566 8.17731 23.7838 8.26714 23.8462 8.48508 23.8052 8.7196 23.6727 8.90355 23.4806 9.02959 23.4067 9.08125 23.3328 9.08125Z" fill="#003F88" transform="matrix(1.00364 0 0 1 599.239 33.5023)"/><path d="M23.3297 9.04612 23.3297 9.04612C23.3964 9.04612 23.478 8.99447 23.6557 8.86842 23.7884 8.68747 23.832 8.45605 23.774 8.23924 23.7451 8.15747 23.6792 8.09424 23.5963 8.06878 23.5224 8.12043 22.9154 8.55745 23.0797 8.93506 23.1524 8.99343 23.2392 9.03176 23.3313 9.04612" fill="#003F88" transform="matrix(1.00364 0 0 1 599.242 33.4935)"/></g></svg>